<svg width="611" height="1173" viewBox="0 0 611 1173" fill="none" xmlns="http://www.w3.org/2000/svg">
<g filter="url(#filter0_d)">
<g filter="url(#filter1_di)">
<mask id="path-1-outside-1" maskUnits="userSpaceOnUse" x="25.3079" y="25.5736" width="560" height="1121" fill="black">
<rect fill="white" x="25.3079" y="25.5736" width="560" height="1121"/>
<path fill-rule="evenodd" clip-rule="evenodd" d="M29.3079 107.574C29.3079 62.8386 65.5728 26.5736 110.308 26.5736H500.308C545.043 26.5736 581.308 62.8385 581.308 107.574V285.574H584.308V413.574H581.308V1064.57C581.308 1109.31 545.043 1145.57 500.308 1145.57H110.308C65.5728 1145.57 29.3079 1109.31 29.3079 1064.57V439.574H26.3079V359.574H29.3079V337.574H26.3079V257.574H29.3079V219.574H26.3079V178.574H29.3079V107.574Z"/>
</mask>
<path fill-rule="evenodd" clip-rule="evenodd" d="M29.3079 107.574C29.3079 62.8386 65.5728 26.5736 110.308 26.5736H500.308C545.043 26.5736 581.308 62.8385 581.308 107.574V285.574H584.308V413.574H581.308V1064.57C581.308 1109.31 545.043 1145.57 500.308 1145.57H110.308C65.5728 1145.57 29.3079 1109.31 29.3079 1064.57V439.574H26.3079V359.574H29.3079V337.574H26.3079V257.574H29.3079V219.574H26.3079V178.574H29.3079V107.574Z" fill="#0F0F0F"/>
<path d="M581.308 285.574H580.308V286.574H581.308V285.574ZM584.308 285.574H585.308V284.574H584.308V285.574ZM584.308 413.574V414.574H585.308V413.574H584.308ZM581.308 413.574V412.574H580.308V413.574H581.308ZM29.3079 439.574H30.3079V438.574H29.3079V439.574ZM26.3079 439.574H25.3079V440.574H26.3079V439.574ZM26.3079 359.574V358.574H25.3079V359.574H26.3079ZM29.3079 359.574V360.574H30.3079V359.574H29.3079ZM29.3079 337.574H30.3079V336.574H29.3079V337.574ZM26.3079 337.574H25.3079V338.574H26.3079V337.574ZM26.3079 257.574V256.574H25.3079V257.574H26.3079ZM29.3079 257.574V258.574H30.3079V257.574H29.3079ZM29.3079 219.574H30.3079V218.574H29.3079V219.574ZM26.3079 219.574H25.3079V220.574H26.3079V219.574ZM26.3079 178.574V177.574H25.3079V178.574H26.3079ZM29.3079 178.574V179.574H30.3079V178.574H29.3079ZM110.308 25.5736C65.0205 25.5736 28.3079 62.2863 28.3079 107.574H30.3079C30.3079 63.3909 66.1251 27.5736 110.308 27.5736V25.5736ZM500.308 25.5736H110.308V27.5736H500.308V25.5736ZM582.308 107.574C582.308 62.2863 545.595 25.5736 500.308 25.5736V27.5736C544.491 27.5736 580.308 63.3908 580.308 107.574H582.308ZM582.308 285.574V107.574H580.308V285.574H582.308ZM581.308 286.574H584.308V284.574H581.308V286.574ZM583.308 285.574V413.574H585.308V285.574H583.308ZM584.308 412.574H581.308V414.574H584.308V412.574ZM582.308 1064.57V413.574H580.308V1064.57H582.308ZM500.308 1146.57C545.595 1146.57 582.308 1109.86 582.308 1064.57H580.308C580.308 1108.76 544.491 1144.57 500.308 1144.57V1146.57ZM110.308 1146.57H500.308V1144.57H110.308V1146.57ZM28.3079 1064.57C28.3079 1109.86 65.0205 1146.57 110.308 1146.57V1144.57C66.1251 1144.57 30.3079 1108.76 30.3079 1064.57H28.3079ZM28.3079 439.574V1064.57H30.3079V439.574H28.3079ZM26.3079 440.574H29.3079V438.574H26.3079V440.574ZM25.3079 359.574V439.574H27.3079V359.574H25.3079ZM29.3079 358.574H26.3079V360.574H29.3079V358.574ZM28.3079 337.574V359.574H30.3079V337.574H28.3079ZM26.3079 338.574H29.3079V336.574H26.3079V338.574ZM25.3079 257.574V337.574H27.3079V257.574H25.3079ZM29.3079 256.574H26.3079V258.574H29.3079V256.574ZM28.3079 219.574V257.574H30.3079V219.574H28.3079ZM26.3079 220.574H29.3079V218.574H26.3079V220.574ZM25.3079 178.574V219.574H27.3079V178.574H25.3079ZM29.3079 177.574H26.3079V179.574H29.3079V177.574ZM28.3079 107.574V178.574H30.3079V107.574H28.3079Z" fill="black" fill-opacity="0.501245" mask="url(#path-1-outside-1)"/>
</g>
<rect opacity="0.249264" x="39.8079" y="38.0736" width="531" height="1098" rx="70.5" stroke="url(#paint0_linear)"/>
<path fill-rule="evenodd" clip-rule="evenodd" d="M168.308 73.5117V60.5736H114.308C86.1413 60.5736 63.3079 83.2984 63.3079 111.331V1054.82C63.3079 1082.85 86.1413 1105.57 114.308 1105.57H495.308C523.474 1105.57 546.308 1082.85 546.308 1054.82V111.331C546.308 83.2984 523.474 60.5736 495.308 60.5736H438.308V73.5117C438.308 87.2531 427.115 98.3927 413.308 98.3927H193.308C179.501 98.3927 168.308 87.2531 168.308 73.5117ZM221.786 1083.68C219.313 1083.68 217.308 1085.68 217.308 1088.16C217.308 1090.63 219.313 1092.64 221.786 1092.64H386.829C389.303 1092.64 391.308 1090.63 391.308 1088.16C391.308 1085.68 389.303 1083.68 386.829 1083.68H221.786Z" fill="#85FF00"/>
<g filter="url(#filter2_i)">
<rect x="271.308" y="65.5736" width="67" height="9" rx="4.5" fill="black" fill-opacity="0.01"/>
</g>
</g>
<defs>
<filter id="filter0_d" x="0.307861" y="0.573608" width="610" height="1171" filterUnits="userSpaceOnUse" color-interpolation-filters="sRGB">
<feFlood flood-opacity="0" result="BackgroundImageFix"/>
<feColorMatrix in="SourceAlpha" type="matrix" values="0 0 0 0 0 0 0 0 0 0 0 0 0 0 0 0 0 0 127 0"/>
<feOffset/>
<feGaussianBlur stdDeviation="12.5"/>
<feColorMatrix type="matrix" values="0 0 0 0 0 0 0 0 0 0 0 0 0 0 0 0 0 0 0.22 0"/>
<feBlend mode="normal" in2="BackgroundImageFix" result="effect1_dropShadow"/>
<feBlend mode="normal" in="SourceGraphic" in2="effect1_dropShadow" result="shape"/>
</filter>
<filter id="filter1_di" x="5.30786" y="10.5736" width="600" height="1162" filterUnits="userSpaceOnUse" color-interpolation-filters="sRGB">
<feFlood flood-opacity="0" result="BackgroundImageFix"/>
<feColorMatrix in="SourceAlpha" type="matrix" values="0 0 0 0 0 0 0 0 0 0 0 0 0 0 0 0 0 0 127 0"/>
<feOffset dy="6"/>
<feGaussianBlur stdDeviation="10"/>
<feColorMatrix type="matrix" values="0 0 0 0 0 0 0 0 0 0 0 0 0 0 0 0 0 0 0.702163 0"/>
<feBlend mode="normal" in2="BackgroundImageFix" result="effect1_dropShadow"/>
<feBlend mode="normal" in="SourceGraphic" in2="effect1_dropShadow" result="shape"/>
<feColorMatrix in="SourceAlpha" type="matrix" values="0 0 0 0 0 0 0 0 0 0 0 0 0 0 0 0 0 0 127 0" result="hardAlpha"/>
<feOffset dy="-15"/>
<feGaussianBlur stdDeviation="25"/>
<feComposite in2="hardAlpha" operator="arithmetic" k2="-1" k3="1"/>
<feColorMatrix type="matrix" values="0 0 0 0 0 0 0 0 0 0 0 0 0 0 0 0 0 0 1 0"/>
<feBlend mode="normal" in2="shape" result="effect2_innerShadow"/>
</filter>
<filter id="filter2_i" x="271.308" y="65.5736" width="67" height="11" filterUnits="userSpaceOnUse" color-interpolation-filters="sRGB">
<feFlood flood-opacity="0" result="BackgroundImageFix"/>
<feBlend mode="normal" in="SourceGraphic" in2="BackgroundImageFix" result="shape"/>
<feColorMatrix in="SourceAlpha" type="matrix" values="0 0 0 0 0 0 0 0 0 0 0 0 0 0 0 0 0 0 127 0" result="hardAlpha"/>
<feOffset dy="2"/>
<feGaussianBlur stdDeviation="3"/>
<feComposite in2="hardAlpha" operator="arithmetic" k2="-1" k3="1"/>
<feColorMatrix type="matrix" values="0 0 0 0 0.0877274 0 0 0 0 0.0941952 0 0 0 0 0.10228 0 0 0 0.28626 0"/>
<feBlend mode="normal" in2="shape" result="effect1_innerShadow"/>
</filter>
<linearGradient id="paint0_linear" x1="571.308" y1="1136.57" x2="571.308" y2="37.5736" gradientUnits="userSpaceOnUse">
<stop stop-color="white" stop-opacity="0.397249"/>
<stop offset="1" stop-opacity="0.787308"/>
</linearGradient>
</defs>
</svg>
